<svg width="22" height="24" viewBox="0 0 22 24" fill="none" xmlns="http://www.w3.org/2000/svg">
<rect width="21.7846" height="24" rx="10" fill="white"/>
<path fill-rule="evenodd" clip-rule="evenodd" d="M16.3385 16.08C15.6486 16.08 15.0314 16.38 14.5594 16.85L8.08754 12.7C8.13292 12.47 8.16923 12.24 8.16923 12C8.16923 11.76 8.13292 11.53 8.08754 11.3L14.4868 7.19C14.9769 7.69 15.6214 8 16.3385 8C17.8452 8 19.0615 6.66 19.0615 5C19.0615 3.34 17.8452 2 16.3385 2C14.8317 2 13.6154 3.34 13.6154 5C13.6154 5.24 13.6517 5.47 13.6971 5.7L7.29785 9.81C6.80769 9.31 6.16323 9 5.44615 9C3.93938 9 2.72308 10.34 2.72308 12C2.72308 13.66 3.93938 15 5.44615 15C6.16323 15 6.80769 14.69 7.29785 14.19L13.7606 18.35C13.7152 18.56 13.688 18.78 13.688 19C13.688 20.61 14.8771 21.92 16.3385 21.92C17.7998 21.92 18.9889 20.61 18.9889 19C18.9889 17.39 17.7998 16.08 16.3385 16.08Z" fill="black" fill-opacity="0.87"/>
</svg>
